<svg width="224" height="66" viewBox="0 0 224 66" fill="none" xmlns="http://www.w3.org/2000/svg">
<path d="M26.7393 0C31.3046 4.69689 45.528 17.9086 48.6531 37.5751C52.3592 60.8976 25.4502 72.3969 11.754 62.3553C0.797107 54.322 -0.545654 44.9714 0.152582 41.3002C8.37026 41.6242 25.1924 33.8176 26.7393 0Z" fill="black"/>
<path d="M7.0334 17C4.7477 21.9765 0.640996 32.0364 0.5 37.5C0.468959 38.7028 11.5113 35.7412 14.5004 30.5C12.1561 28.0117 8.58065 22.4636 7.0334 17Z" fill="black"/>
<path d="M64.84 52V26.56H68.872V52H64.84ZM64.744 22.576V17.872H68.968V22.576H64.744ZM83.338 59.776C81.514 59.776 79.866 59.472 78.394 58.864C76.922 58.256 75.69 57.392 74.698 56.272C73.706 55.152 73.034 53.856 72.682 52.384L76.906 52.096C77.29 53.28 77.962 54.208 78.922 54.88C79.914 55.584 81.386 55.936 83.338 55.936C85.642 55.936 87.402 55.472 88.618 54.544C89.866 53.616 90.49 52.224 90.49 50.368V46.24C89.882 47.584 88.906 48.656 87.562 49.456C86.218 50.256 84.714 50.656 83.05 50.656C80.906 50.656 78.986 50.128 77.29 49.072C75.626 48.016 74.314 46.56 73.354 44.704C72.426 42.848 71.962 40.72 71.962 38.32C71.962 35.888 72.426 33.76 73.354 31.936C74.282 30.08 75.562 28.624 77.194 27.568C78.858 26.512 80.746 25.984 82.858 25.984C84.65 25.984 86.25 26.4 87.658 27.232C89.098 28.064 90.106 29.184 90.682 30.592V26.56H94.522V50.272C94.522 52.256 94.074 53.952 93.178 55.36C92.282 56.8 91.002 57.888 89.338 58.624C87.674 59.392 85.674 59.776 83.338 59.776ZM83.242 46.816C85.418 46.816 87.162 46.064 88.474 44.56C89.786 43.024 90.458 40.944 90.49 38.32C90.522 36.56 90.234 35.056 89.626 33.808C89.05 32.528 88.202 31.552 87.082 30.88C85.994 30.176 84.714 29.824 83.242 29.824C81.002 29.824 79.258 30.592 78.01 32.128C76.794 33.632 76.186 35.696 76.186 38.32C76.186 40.944 76.81 43.024 78.058 44.56C79.338 46.064 81.066 46.816 83.242 46.816ZM99.79 52V26.56H103.486L103.63 33.04L103.15 32.608C103.47 31.104 104.03 29.872 104.83 28.912C105.63 27.92 106.59 27.184 107.71 26.704C108.862 26.224 110.094 25.984 111.406 25.984C113.358 25.984 114.958 26.416 116.206 27.28C117.486 28.144 118.43 29.312 119.038 30.784C119.678 32.224 119.998 33.84 119.998 35.632V52H115.966V36.784C115.966 35.216 115.774 33.904 115.39 32.848C115.038 31.76 114.462 30.944 113.662 30.4C112.862 29.824 111.822 29.536 110.542 29.536C108.59 29.536 106.974 30.16 105.694 31.408C104.446 32.624 103.822 34.416 103.822 36.784V52H99.79ZM124.812 52V26.56H128.844V52H124.812ZM124.716 22.576V17.872H128.94V22.576H124.716ZM141.521 52C139.217 52 137.505 51.472 136.385 50.416C135.297 49.36 134.753 47.712 134.753 45.472V20.608H138.785V45.376C138.785 46.528 139.041 47.328 139.553 47.776C140.065 48.224 140.849 48.448 141.905 48.448H145.553V52H141.521ZM131.009 30.112V26.56H145.553V30.112H131.009ZM157.792 52.576C155.392 52.576 153.312 52.032 151.552 50.944C149.824 49.856 148.48 48.32 147.52 46.336C146.592 44.32 146.128 41.968 146.128 39.28C146.128 36.592 146.592 34.256 147.52 32.272C148.48 30.288 149.808 28.752 151.504 27.664C153.232 26.544 155.264 25.984 157.6 25.984C159.808 25.984 161.76 26.512 163.456 27.568C165.152 28.592 166.464 30.096 167.392 32.08C168.352 34.064 168.832 36.48 168.832 39.328V40.528H150.352C150.512 43.248 151.232 45.296 152.512 46.672C153.824 48.048 155.584 48.736 157.792 48.736C159.456 48.736 160.816 48.352 161.872 47.584C162.96 46.784 163.712 45.744 164.128 44.464L168.448 44.8C167.776 47.072 166.496 48.944 164.608 50.416C162.752 51.856 160.48 52.576 157.792 52.576ZM150.352 36.976H164.416C164.224 34.512 163.504 32.704 162.256 31.552C161.04 30.4 159.488 29.824 157.6 29.824C155.648 29.824 154.032 30.432 152.752 31.648C151.504 32.832 150.704 34.608 150.352 36.976ZM171.893 52V26.56H175.445L175.637 32.992L175.253 32.848C175.573 30.672 176.261 29.088 177.317 28.096C178.405 27.072 179.845 26.56 181.637 26.56H184.133V30.4H181.685C180.405 30.4 179.333 30.64 178.469 31.12C177.637 31.568 176.997 32.256 176.549 33.184C176.133 34.08 175.925 35.232 175.925 36.64V52H171.893ZM183.093 52V46.576H188.517V52H183.093ZM188.466 59.2V55.648H190.53C191.362 55.648 192.034 55.44 192.546 55.024C193.058 54.64 193.314 53.92 193.314 52.864V26.56H197.346V53.056C197.346 55.296 196.85 56.88 195.858 57.808C194.866 58.736 193.218 59.2 190.914 59.2H188.466ZM193.218 22.576V17.872H197.442V22.576H193.218ZM211.41 52.576C209.138 52.576 207.202 52.208 205.602 51.472C204.034 50.736 202.802 49.728 201.906 48.448C201.042 47.136 200.546 45.648 200.418 43.984L204.642 43.696C204.898 45.232 205.554 46.464 206.61 47.392C207.666 48.288 209.266 48.736 211.41 48.736C213.138 48.736 214.514 48.464 215.538 47.92C216.594 47.344 217.122 46.432 217.122 45.184C217.122 44.512 216.962 43.952 216.642 43.504C216.322 43.056 215.698 42.672 214.77 42.352C213.842 42 212.466 41.664 210.642 41.344C208.21 40.896 206.29 40.352 204.882 39.712C203.506 39.04 202.514 38.224 201.906 37.264C201.33 36.272 201.042 35.104 201.042 33.76C201.042 31.488 201.874 29.632 203.538 28.192C205.202 26.72 207.57 25.984 210.642 25.984C212.722 25.984 214.466 26.368 215.874 27.136C217.314 27.872 218.434 28.864 219.234 30.112C220.066 31.328 220.61 32.672 220.866 34.144L216.642 34.432C216.45 33.536 216.098 32.752 215.586 32.08C215.074 31.376 214.402 30.832 213.57 30.448C212.738 30.032 211.746 29.824 210.594 29.824C208.77 29.824 207.426 30.176 206.562 30.88C205.698 31.584 205.266 32.48 205.266 33.568C205.266 34.4 205.458 35.088 205.842 35.632C206.258 36.144 206.914 36.576 207.81 36.928C208.706 37.248 209.906 37.536 211.41 37.792C214.002 38.24 216.018 38.784 217.458 39.424C218.898 40.064 219.906 40.848 220.482 41.776C221.058 42.704 221.346 43.84 221.346 45.184C221.346 46.752 220.898 48.096 220.002 49.216C219.138 50.304 217.954 51.136 216.45 51.712C214.978 52.288 213.298 52.576 211.41 52.576Z" fill="black"/>
</svg>
